<svg width="256" height="256" viewBox="0 0 256 256" xmlns="http://www.w3.org/2000/svg">
  <g transform="translate(-5,0)">
    <defs>
      <linearGradient id="gradPurple" x1="0%" y1="0%" x2="100%" y2="100%">
        <stop offset="0%" style="stop-color:#7c3aed;stop-opacity:1" />
        <stop offset="100%" style="stop-color:#f97316;stop-opacity:1" />
      </linearGradient>
      <filter id="softShadow">
        <feDropShadow dx="0" dy="4" stdDeviation="6" flood-color="#000000" flood-opacity="0.15"/>
      </filter>
    </defs>

    <path d="M50,20 L206,20 C234,20 246,42 246,70 L246,186 
             C 246,214 234,236 206,236 L20,236 
             L20,236 
             L20,186 
             C 20,154 22,176 38,176  
             C 54,176 54,80 38,80  
             C 22,80 20,102 20,102 
             L20,70 L20,20 Z" 
          fill="url(#gradPurple)" filter="url(#softShadow)"/>

    <g transform="translate(148, 128) scale(1.0)" stroke="white" stroke-width="18" stroke-linecap="round" stroke-linejoin="round" fill="none">
      <path d="M -30 -25 L -60 0 L -30 25" />
      <path d="M 30 -25 L 60 0 L 30 25" />
    </g>
  </g>
</svg>
